<svg xmlns="http://www.w3.org/2000/svg" width="16" height="16" fill="#0d6efd" class="bi bi-heart-pulse-fill" viewBox="0 0 16 16">
    <path fill-rule="evenodd" d="M1.475 9C2.702 10.84 4.779 12.871 8 15c3.221-2.129 5.298-4.16 6.525-6H12a.5.5 0 0 1-.464-.314l-1.457-3.642-1.598 5.593a.5.5 0 0 1-.916-.004L6.16 3.732 4.53 8.655A.5.5 0 0 1 4.066 9H1.475ZM.5 9a.5.5 0 0 1-.428-.742l2.5-6a.5.5 0 0 1 .956.138l.85 2.547 1.27-4.433a.5.5 0 0 1 .964.027L8.46 5.414l.875-2.188a.5.5 0 0 1 .927 0l2.5 6.25A.5.5 0 0 1 12.277 10H15.5a.5.5 0 0 1 0 1h-3.563a.5.5 0 0 1-.464-.314L10.097 6.13l-1.188 2.97a.5.5 0 0 1-.938-.038l-1.267-3.486-1.458 5.103a.5.5 0 0 1-.96-.027l-1.767-4.241L.928 9H.5Z"/>
</svg>
